<?xml version="1.0" encoding="utf-8"?>
<!DOCTYPE svg>
<svg viewBox="0 0 462 500" width="600" xmlns="http://www.w3.org/2000/svg">
    <style>
        .arrow-marker {
            fill: #999;
        }

        .arrow-dimension-line {
            fill: none;
            stroke-width: 0.75;
            stroke: #999;
        }

        .arrow,
        .arrow-inverted-start,
        .arrow-inverted-end {
            fill: none;
            stroke-width: 1.5;
            stroke: #999;
        }

        .arrow {
            marker-start: url(#arrow-start);
            marker-end: url(#arrow-end);
        }

        .arrow-inverted-start {
            marker-end: url(#arrow-inverted-start);
        }

        .arrow-inverted-end {
            marker-start: url(#arrow-inverted-end);
        }

        .border {
            stroke-width: 2;
            stroke: black;
        }
    </style>
    <defs>
        <clipPath id="magnet-clip">
            <path
                d="M10 87.354838709677a175.8064516129 77.354838709677 0 0 1 351.61290322581 0 v281.29032258065 a175.8064516129 77.354838709677 0 0 1 -351.61290322581 0 z" />
        </clipPath>
        <clipPath id="north-clip">
            <path
                d="M10 87.354838709677a175.8064516129 77.354838709677 0 0 1 351.61290322581 0 v140.64516129032 a175.8064516129 77.354838709677 0 0 1 -351.61290322581 0 z" />
        </clipPath>
        <marker id="arrow-start" orient="auto" markerWidth="10" markerHeight="5" refX="6.6666666666667" refY="2.5">
            <path d="M10 0V5L0 2.5Z" class="arrow-marker" />
        </marker>
        <marker id="arrow-end" orient="auto" markerWidth="10" markerHeight="5" refX="3.3333333333333" refY="2.5">
            <path d="M0 0V5L10 2.5Z" class="arrow-marker" />
        </marker>
        <marker id="arrow-inverted-start" orient="auto" markerWidth="10" markerHeight="5" refX="3.3333333333333"
            refY="2.5">
            <path d="M0 0V5L10 2.5Z" class="arrow-marker" />
        </marker>
        <marker id="arrow-inverted-end" orient="auto" markerWidth="10" markerHeight="5" refX="6.6666666666667"
            refY="2.5">
            <path d="M10 0V5L0 2.5Z" class="arrow-marker" />
        </marker>
    </defs>
    <g>
        <rect x="10" y="10" width="351.61290322581" height="436" style="clip-path:url(#magnet-clip);fill:#36987D" />
        <rect x="10" y="10" width="351.61290322581" height="436" style="clip-path:url(#north-clip);fill:#CB5959" />
    </g>
    <path d="M364.61290322581 87.354838709677h16" class="arrow-dimension-line" />
    <path d="M364.61290322581 368.64516129032h16" class="arrow-dimension-line" />
    <path d="M375.61290322581 97.354838709677v261.29032258065" class="arrow" />
    <text x="381.61290322581" y="235.5" font-size="21" font-family="Arial, Helvetica, sans-serif"
        style="fill:#999;text-anchor:left;">5 mm</text>
    <path d="M10 386.50618909396v78.493810906037" class="arrow-dimension-line" />
    <path d="M361.61290322581 386.50618909396v78.493810906037" class="arrow-dimension-line" />
    <path d="M20 460h331.61290322581" class="arrow" />
    <text x="185.8064516129" y="481" font-size="21" font-family="Arial, Helvetica, sans-serif"
        style="fill:#999;text-anchor:middle;">5 mm</text>
    <ellipse cx="185.8064516129" cy="87.354838709677" rx="175.8064516129" ry="77.354838709677" class="border"
        fill="none" />
    <path d="M10 368.64516129032a175.8064516129 77.354838709677 0 0 0 351.61290322581 0" class="border" fill="none" />
    <path d="M10 87.354838709677v281.29032258065" class="border" />
    <path d="M361.61290322581 87.354838709677v281.29032258065" class="border" />
</svg>