<?xml version="1.0" encoding="utf-8"?>
<!DOCTYPE svg>
<svg viewBox="0 0 500 191" width="600" xmlns="http://www.w3.org/2000/svg">
    <style>
        .arrow-marker {
            fill: #999;
        }

        .arrow-dimension-line {
            fill: none;
            stroke-width: 0.75;
            stroke: #999;
        }

        .arrow,
        .arrow-inverted-start,
        .arrow-inverted-end {
            fill: none;
            stroke-width: 1.5;
            stroke: #999;
        }

        .arrow {
            marker-start: url(#arrow-start);
            marker-end: url(#arrow-end);
        }

        .arrow-inverted-start {
            marker-end: url(#arrow-inverted-start);
        }

        .arrow-inverted-end {
            marker-start: url(#arrow-inverted-end);
        }

        .border {
            stroke-width: 2;
            stroke: black;
        }
    </style>
    <defs>
        <marker id="arrow-start" orient="auto" markerWidth="10" markerHeight="5" refX="6.6666666666667" refY="2.5">
            <path d="M10 0V5L0 2.5Z" class="arrow-marker" />
        </marker>
        <marker id="arrow-end" orient="auto" markerWidth="10" markerHeight="5" refX="3.3333333333333" refY="2.5">
            <path d="M0 0V5L10 2.5Z" class="arrow-marker" />
        </marker>
        <marker id="arrow-inverted-start" orient="auto" markerWidth="10" markerHeight="5" refX="3.3333333333333"
            refY="2.5">
            <path d="M0 0V5L10 2.5Z" class="arrow-marker" />
        </marker>
        <marker id="arrow-inverted-end" orient="auto" markerWidth="10" markerHeight="5" refX="6.6666666666667"
            refY="2.5">
            <path d="M10 0V5L0 2.5Z" class="arrow-marker" />
        </marker>
        <clipPath id="north-clip">
            <path d="M10 71.793020628247L71.793020628247 10H399.5V42.770697937175L337.70697937175 104.56371856542H10Z"
                fill="#CB5959" />
        </clipPath>
    </defs>
    <path d="M10 71.793020628247L71.793020628247 10H399.5V75.541395874351L337.70697937175 137.3344165026H10Z"
        fill="#36987D" />
    <path d="M10 71.793020628247L71.793020628247 10H399.5V75.541395874351L337.70697937175 137.3344165026H10Z"
        fill="#CB5959" clip-path="url(#north-clip)" />
    <path d="M10 140.3344165026v16" class="arrow-dimension-line" />
    <path d="M337.70697937175 140.3344165026v16" class="arrow-dimension-line" />
    <path d="M20 151.3344165026h307.70697937175" class="arrow" />
    <text x="173.85348968588" y="172.3344165026" font-size="21" font-family="Arial, Helvetica, sans-serif"
        style="fill:#999;text-anchor:middle;">10 mm</text>
    <path d="M402.5 10h16" class="arrow-dimension-line" />
    <path d="M402.5 75.541395874351h16" class="arrow-dimension-line" />
    <path d="M413.5 20v45.541395874351" class="arrow" />
    <text x="419.5" y="50.270697937175" font-size="21" font-family="Arial, Helvetica, sans-serif"
        style="fill:#999;text-anchor:left;">2 mm</text>
    <path d="M339.82829971531 139.45573684616L351.1420082143 150.76944534514" class="arrow-dimension-line" />
    <path d="M401.62132034356 77.66271621791L412.93502884254 88.976424716895" class="arrow-dimension-line" />
    <path d="M354.67754212023 140.16284362734L402.32842712475 92.511958622828" class="arrow" />
    <text x="382.74562530961" y="135.58004181221" font-size="21" font-family="Arial, Helvetica, sans-serif"
        style="fill:#999;text-anchor:left;">5 mm</text>
    <path d="M10 71.793020628247H337.70697937175V137.3344165026H10Z" fill="none" class="border" />
    <path d="M10 71.793020628247L71.793020628247 10H399.5V75.541395874351L337.70697937175 137.3344165026" fill="none"
        class="border" />
    <path d="M337.70697937175 71.793020628247L399.5 10" class="border" />
</svg>